<svg width="64" height="64" viewBox="0 0 64 64" fill="none" xmlns="http://www.w3.org/2000/svg">
<g clip-path="url(#clip0_2_78)">
<path d="M8.565 16.475L30.202 4.07999C30.7494 3.76641 31.3692 3.60144 32 3.60144C32.6308 3.60144 33.2507 3.76641 33.798 4.07999L55.435 16.475C55.9877 16.7915 56.447 17.2484 56.7664 17.7994C57.0858 18.3505 57.254 18.9761 57.254 19.613V44.355C57.2541 44.9919 57.086 45.6176 56.7665 46.1686C56.4471 46.7197 55.9878 47.1765 55.435 47.493L33.798 59.889C33.2507 60.2026 32.6308 60.3675 32 60.3675C31.3692 60.3675 30.7494 60.2026 30.202 59.889L8.565 47.494C8.0123 47.1775 7.55301 46.7206 7.2336 46.1696C6.91419 45.6185 6.74598 44.9929 6.746 44.356V19.613C6.746 18.317 7.44 17.119 8.565 16.475Z" fill="#FFC392"/>
<path d="M57.75 44.355V37H7.75V44.355C7.75 45.652 7.942 46.849 9.067 47.493L30.453 59.888C31.567 60.526 32.81 60.526 33.923 59.888L55.745 47.493C56.871 46.849 57.75 45.652 57.75 44.355Z" fill="#FD9447"/>
<path d="M9.576 30.581L17.587 25.948C18.1054 25.6483 18.6852 25.4707 19.2825 25.4287C19.8798 25.3868 20.4789 25.4816 21.034 25.706L29.126 29.517C29.556 29.719 30.064 29.652 30.426 29.346L36.991 23.79C37.463 23.4428 38.0485 23.2863 38.6308 23.3515C39.2131 23.4168 39.7495 23.699 40.133 24.142L42.482 26.818C42.5998 26.9355 42.7591 27.0019 42.9255 27.0028C43.0918 27.0038 43.2519 26.9392 43.371 26.823L45.628 24.942C45.8346 24.7742 46.0957 24.6882 46.3616 24.7004C46.6275 24.7126 46.8796 24.822 47.07 25.008L50.063 27.9C50.492 28.231 51.098 28.2 51.491 27.827L53.854 25.58C54.0018 25.4394 54.1786 25.3328 54.3719 25.2677C54.5652 25.2025 54.7704 25.1804 54.9731 25.2027C55.1759 25.2251 55.3713 25.2915 55.5457 25.3973C55.7202 25.503 55.8694 25.6456 55.983 25.815L59.127 30.505V36.34L7.858 35.958L9.576 30.581Z" fill="#B8472E"/>
<path d="M5.807 37.773L5.415 32.046C5.38734 31.9044 5.39301 31.7583 5.43154 31.6193C5.47006 31.4803 5.54041 31.3521 5.637 31.245L9.177 27.311C9.70824 26.7208 10.4424 26.3526 11.2331 26.2798C12.0238 26.2069 12.8129 26.4348 13.443 26.918L18.23 30.589C19.0084 31.186 19.9742 31.4857 20.9538 31.4342C21.9334 31.3827 22.8625 30.9834 23.574 30.308L29.054 25.106C29.4725 24.7088 30.018 24.4725 30.594 24.439C31.17 24.4055 31.7393 24.577 32.201 24.923L39.88 30.68C40.041 30.8007 40.2368 30.866 40.438 30.866C40.6392 30.866 40.835 30.8007 40.996 30.68L48.736 25.513C48.9138 25.3796 49.1335 25.3144 49.3553 25.3291C49.5771 25.3438 49.7863 25.4374 49.945 25.593L60.057 35.668L6.773 38.525C6.54833 38.5374 6.32677 38.468 6.14922 38.3298C5.97167 38.1916 5.85012 37.9938 5.807 37.773Z" fill="#D95133"/>
<path d="M8.19299 38.51L17.02 31.477C17.9936 30.7013 19.1982 30.2725 20.4429 30.2588C21.6877 30.245 22.9015 30.647 23.892 31.401L32.724 38.125L8.19299 38.51Z" fill="#E86430"/>
<path d="M13.733 53.831L30.111 60.499C31.832 61.2 33.947 61.2 35.669 60.499L44.156 55.419C44.156 55.419 27.595 35.13 52.104 34.667C55.043 34.611 43.449 34.724 40.51 34.66C15.242 34.11 13.733 53.831 13.733 53.831Z" fill="#5C2929"/>
<path d="M41.464 37.425L49.645 30.918C50.0055 30.6357 50.4539 30.4895 50.9115 30.5051C51.3691 30.5206 51.8065 30.6969 52.147 31.003L59.126 37.425H41.464Z" fill="#E86430"/>
<path opacity="0.1" d="M23.518 23.663C27.5132 23.663 30.752 20.4242 30.752 16.429C30.752 12.4338 27.5132 9.19501 23.518 9.19501C19.5228 9.19501 16.284 12.4338 16.284 16.429C16.284 20.4242 19.5228 23.663 23.518 23.663Z" fill="#FFDEC7"/>
<path opacity="0.2" d="M23.518 22.629C26.9422 22.629 29.718 19.8532 29.718 16.429C29.718 13.0048 26.9422 10.229 23.518 10.229C20.0938 10.229 17.318 13.0048 17.318 16.429C17.318 19.8532 20.0938 22.629 23.518 22.629Z" fill="#FFDEC7"/>
<path opacity="0.3" d="M23.518 21.596C26.3717 21.596 28.685 19.2826 28.685 16.429C28.685 13.5753 26.3717 11.262 23.518 11.262C20.6643 11.262 18.351 13.5753 18.351 16.429C18.351 19.2826 20.6643 21.596 23.518 21.596Z" fill="#FFDEC7"/>
<path d="M23.518 20.287C25.6487 20.287 27.376 18.5597 27.376 16.429C27.376 14.2983 25.6487 12.571 23.518 12.571C21.3873 12.571 19.66 14.2983 19.66 16.429C19.66 18.5597 21.3873 20.287 23.518 20.287Z" fill="#FFDEC7"/>
<path d="M23.518 12.571C23.299 12.571 23.084 12.59 22.875 12.625C23.7729 12.7783 24.5877 13.2442 25.1751 13.9404C25.7626 14.6366 26.0848 15.5181 26.0848 16.429C26.0848 17.3399 25.7626 18.2215 25.1751 18.9176C24.5877 19.6138 23.7729 20.0798 22.875 20.233C23.4014 20.322 23.9405 20.3008 24.4583 20.1707C24.976 20.0407 25.4612 19.8045 25.883 19.4773C26.3048 19.1501 26.6541 18.7389 26.9088 18.2697C27.1635 17.8006 27.3181 17.2836 27.3627 16.7516C27.4074 16.2197 27.3411 15.6842 27.1682 15.1791C26.9952 14.6741 26.7193 14.2104 26.358 13.8175C25.9966 13.4245 25.5576 13.1109 25.0687 12.8963C24.5799 12.6817 24.0519 12.571 23.518 12.571Z" fill="#EFCDBB"/>
<path d="M25.198 58.963L26.163 54.432L27.152 49.788C27.34 48.94 27.504 48.069 27.732 47.128C27.97 46.175 28.284 45.242 28.681 44.337C29.074 43.434 29.553 42.57 30.094 41.773L30.301 41.478L30.44 41.287L30.55 41.158L30.988 40.646L31.889 39.604C33.228 38.304 34.726 37.524 36.021 36.965C37.329 36.414 38.453 36.127 39.221 35.873L40.437 35.494L39.283 36.033C38.554 36.388 37.475 36.828 36.302 37.523C35.139 38.219 33.827 39.169 32.831 40.448C32.455 41.06 31.805 41.956 31.492 42.601C31.1066 43.3771 30.7939 44.1872 30.558 45.021C30.3229 45.8483 30.1579 46.694 30.065 47.549C29.976 48.4 29.928 49.309 29.857 50.174L29.502 54.909L29.155 59.528L25.198 58.963Z" fill="#FFDEC7"/>
<path d="M58.592 14.682L33.798 0.477998C33.2507 0.164425 32.6308 -0.000549316 32 -0.000549316C31.3692 -0.000549316 30.7494 0.164425 30.202 0.477998L5.408 14.682C4.85544 14.9987 4.39627 15.4556 4.07687 16.0066C3.75748 16.5576 3.58919 17.1831 3.589 17.82V46.179C3.589 47.475 4.283 48.673 5.408 49.317L30.202 63.521C30.7494 63.8346 31.3692 63.9995 32 63.9995C32.6308 63.9995 33.2507 63.8346 33.798 63.521L58.592 49.317C59.1446 49.0003 59.6037 48.5434 59.9231 47.9924C60.2425 47.4414 60.4108 46.8159 60.411 46.179V17.821C60.411 17.184 60.2428 16.5582 59.9234 16.007C59.604 15.4558 59.1447 14.9988 58.592 14.682ZM57.254 44.355C57.2541 44.9919 57.086 45.6176 56.7665 46.1686C56.4471 46.7197 55.9878 47.1766 55.435 47.493L33.798 59.889C33.2507 60.2026 32.6308 60.3675 32 60.3675C31.3692 60.3675 30.7494 60.2026 30.202 59.889L26.237 57.617L8.565 47.494C8.01231 47.1775 7.55302 46.7206 7.2336 46.1696C6.91419 45.6185 6.74598 44.9929 6.746 44.356V19.613C6.746 18.317 7.44 17.119 8.565 16.475L30.202 4.08C30.7494 3.76642 31.3692 3.60145 32 3.60145C32.6308 3.60145 33.2507 3.76642 33.798 4.08L55.435 16.475C55.9877 16.7915 56.447 17.2484 56.7664 17.7994C57.0858 18.3505 57.254 18.9761 57.254 19.613V44.355Z" fill="white"/>
</g>
<defs>
<clipPath id="clip0_2_78">
<rect width="64" height="64" fill="white"/>
</clipPath>
</defs>
</svg>
