<svg width="64" height="64" viewBox="0 0 64 64" fill="none" xmlns="http://www.w3.org/2000/svg">
<g clip-path="url(#clip0_2_2)">
<path d="M5.408 14.682L30.202 0.477998C30.7493 0.164425 31.3692 -0.000549316 32 -0.000549316C32.6308 -0.000549316 33.2506 0.164425 33.798 0.477998L58.592 14.682C59.1447 14.9985 59.604 15.4554 59.9234 16.0064C60.2428 16.5575 60.411 17.1831 60.411 17.82V46.179C60.4111 46.8159 60.243 47.4416 59.9235 47.9926C59.6041 48.5437 59.1448 49.0006 58.592 49.317L33.798 63.522C33.2506 63.8356 32.6308 64.0005 32 64.0005C31.3692 64.0005 30.7493 63.8356 30.202 63.522L5.408 49.318C4.8553 49.0015 4.39601 48.5446 4.0766 47.9936C3.75718 47.4425 3.58898 46.8169 3.589 46.18V17.821C3.589 16.524 4.283 15.327 5.408 14.682Z" fill="white"/>
<path d="M8.565 16.491L30.202 4.095C30.7493 3.78143 31.3692 3.61646 32 3.61646C32.6308 3.61646 33.2507 3.78143 33.798 4.095L55.435 16.49C55.9877 16.8065 56.447 17.2634 56.7664 17.8144C57.0858 18.3655 57.254 18.9911 57.254 19.628V44.37C57.2541 45.0069 57.086 45.6326 56.7665 46.1836C56.4471 46.7347 55.9878 47.1916 55.435 47.508L33.798 59.905C33.2507 60.2186 32.6308 60.3836 32 60.3836C31.3692 60.3836 30.7493 60.2186 30.202 59.905L8.565 47.509C8.0123 47.1925 7.55301 46.7356 7.2336 46.1846C6.91418 45.6335 6.74598 45.0079 6.746 44.371V19.629C6.746 18.332 7.44 17.135 8.565 16.491Z" fill="#3A3F99"/>
<path d="M19.386 31.061C19.5859 31.061 19.748 30.8989 19.748 30.699C19.748 30.4991 19.5859 30.337 19.386 30.337C19.1861 30.337 19.024 30.4991 19.024 30.699C19.024 30.8989 19.1861 31.061 19.386 31.061Z" fill="#DBDBDB"/>
<path d="M23.727 20.029C24.0269 20.029 24.27 19.7859 24.27 19.486C24.27 19.1861 24.0269 18.943 23.727 18.943C23.4271 18.943 23.184 19.1861 23.184 19.486C23.184 19.7859 23.4271 20.029 23.727 20.029Z" fill="#DBDBDB"/>
<path d="M45.066 32.869C45.2659 32.869 45.428 32.7069 45.428 32.507C45.428 32.3071 45.2659 32.145 45.066 32.145C44.8661 32.145 44.704 32.3071 44.704 32.507C44.704 32.7069 44.8661 32.869 45.066 32.869Z" fill="#DBDBDB"/>
<path d="M38.194 46.612C38.5933 46.612 38.917 46.2883 38.917 45.889C38.917 45.4897 38.5933 45.166 38.194 45.166C37.7947 45.166 37.471 45.4897 37.471 45.889C37.471 46.2883 37.7947 46.612 38.194 46.612Z" fill="#DBDBDB"/>
<path opacity="0.1" d="M32 48.276C40.989 48.276 48.276 40.989 48.276 32C48.276 23.011 40.989 15.724 32 15.724C23.011 15.724 15.724 23.011 15.724 32C15.724 40.989 23.011 48.276 32 48.276Z" fill="#F2F2F2"/>
<path opacity="0.2" d="M32 45.951C39.7049 45.951 45.951 39.7049 45.951 32C45.951 24.2951 39.7049 18.049 32 18.049C24.2951 18.049 18.049 24.2951 18.049 32C18.049 39.7049 24.2951 45.951 32 45.951Z" fill="#F2F2F2"/>
<path opacity="0.3" d="M32 43.626C38.4209 43.626 43.626 38.4209 43.626 32C43.626 25.5791 38.4209 20.374 32 20.374C25.5791 20.374 20.374 25.5791 20.374 32C20.374 38.4209 25.5791 43.626 32 43.626Z" fill="#F2F2F2"/>
<path d="M32 40.68C36.7938 40.68 40.68 36.7938 40.68 32C40.68 27.2062 36.7938 23.32 32 23.32C27.2062 23.32 23.32 27.2062 23.32 32C23.32 36.7938 27.2062 40.68 32 40.68Z" fill="#F2F2F2"/>
<path d="M32.362 33.809C33.1612 33.809 33.809 33.1612 33.809 32.362C33.809 31.5629 33.1612 30.915 32.362 30.915C31.5628 30.915 30.915 31.5629 30.915 32.362C30.915 33.1612 31.5628 33.809 32.362 33.809Z" fill="#EDEDED"/>
<path d="M32.362 30.915C32.2813 30.9151 32.2006 30.9217 32.121 30.935C32.4572 30.9929 32.7622 31.1678 32.982 31.4287C33.2018 31.6896 33.3224 32.0198 33.3224 32.361C33.3224 32.7022 33.2018 33.0324 32.982 33.2933C32.7622 33.5542 32.4572 33.7291 32.121 33.787C32.319 33.8219 32.5221 33.8152 32.7174 33.7672C32.9127 33.7192 33.0958 33.6311 33.2551 33.5084C33.4144 33.3857 33.5464 33.2311 33.6426 33.0546C33.7389 32.878 33.7973 32.6833 33.8141 32.483C33.8309 32.2826 33.8058 32.0809 33.7403 31.8908C33.6748 31.7007 33.5704 31.5263 33.4338 31.3788C33.2972 31.2312 33.1313 31.1138 32.9468 31.034C32.7622 30.9541 32.5631 30.9136 32.362 30.915Z" fill="#DBDBDB"/>
<path d="M28.021 37.425C28.6202 37.425 29.106 36.9392 29.106 36.34C29.106 35.7408 28.6202 35.255 28.021 35.255C27.4218 35.255 26.936 35.7408 26.936 36.34C26.936 36.9392 27.4218 37.425 28.021 37.425Z" fill="#EDEDED"/>
<path d="M28.021 35.255C27.959 35.255 27.899 35.26 27.84 35.27C28.093 35.3125 28.3228 35.4433 28.4886 35.6392C28.6543 35.8351 28.7452 36.0834 28.7452 36.34C28.7452 36.5966 28.6543 36.8449 28.4886 37.0408C28.3228 37.2367 28.093 37.3675 27.84 37.41C27.988 37.4349 28.1395 37.4288 28.285 37.3921C28.4304 37.3554 28.5667 37.289 28.6852 37.197C28.8038 37.1049 28.9019 36.9893 28.9734 36.8575C29.045 36.7256 29.0884 36.5803 29.101 36.4308C29.1135 36.2813 29.095 36.1308 29.0464 35.9889C28.9978 35.8469 28.9204 35.7165 28.8189 35.606C28.7174 35.4955 28.5941 35.4073 28.4567 35.3469C28.3194 35.2865 28.171 35.2552 28.021 35.255Z" fill="#DBDBDB"/>
<path d="M33.808 38.51C34.2073 38.51 34.531 38.1863 34.531 37.787C34.531 37.3877 34.2073 37.064 33.808 37.064C33.4087 37.064 33.085 37.3877 33.085 37.787C33.085 38.1863 33.4087 38.51 33.808 38.51Z" fill="#EDEDED"/>
<path d="M33.808 37.064C33.7675 37.0643 33.727 37.0676 33.687 37.074C33.8556 37.1023 34.0087 37.1895 34.1191 37.32C34.2296 37.4506 34.2902 37.616 34.2902 37.787C34.2902 37.958 34.2296 38.1234 34.1191 38.2539C34.0087 38.3845 33.8556 38.4717 33.687 38.5C33.7856 38.5166 33.8865 38.5125 33.9835 38.4881C34.0804 38.4637 34.1712 38.4194 34.2502 38.3581C34.3291 38.2968 34.3945 38.2198 34.4422 38.132C34.4899 38.0441 34.5189 37.9473 34.5273 37.8477C34.5357 37.7481 34.5233 37.6478 34.491 37.5532C34.4587 37.4586 34.4071 37.3718 34.3395 37.2981C34.2719 37.2245 34.1898 37.1656 34.0983 37.1253C34.0068 37.085 33.908 37.0642 33.808 37.064Z" fill="#DBDBDB"/>
<path d="M32.362 25.851C32.7613 25.851 33.085 25.5273 33.085 25.128C33.085 24.7287 32.7613 24.405 32.362 24.405C31.9627 24.405 31.639 24.7287 31.639 25.128C31.639 25.5273 31.9627 25.851 32.362 25.851Z" fill="#EDEDED"/>
<path d="M32.362 24.405C32.3215 24.4053 32.281 24.4087 32.241 24.415C32.4096 24.4433 32.5627 24.5305 32.6731 24.661C32.7836 24.7916 32.8442 24.957 32.8442 25.128C32.8442 25.299 32.7836 25.4644 32.6731 25.595C32.5627 25.7255 32.4096 25.8127 32.241 25.841C32.3396 25.8576 32.4405 25.8535 32.5375 25.8291C32.6344 25.8047 32.7252 25.7604 32.8042 25.6991C32.8831 25.6378 32.9485 25.5608 32.9962 25.473C33.0439 25.3851 33.0729 25.2883 33.0813 25.1887C33.0897 25.0891 33.0773 24.9888 33.045 24.8942C33.0127 24.7996 32.9611 24.7128 32.8935 24.6391C32.8259 24.5655 32.7438 24.5066 32.6523 24.4663C32.5608 24.4261 32.462 24.4052 32.362 24.405Z" fill="#DBDBDB"/>
<path d="M35.255 29.106C35.6543 29.106 35.978 28.7823 35.978 28.383C35.978 27.9837 35.6543 27.66 35.255 27.66C34.8557 27.66 34.532 27.9837 34.532 28.383C34.532 28.7823 34.8557 29.106 35.255 29.106Z" fill="#EDEDED"/>
<path d="M35.255 27.66C35.2145 27.6603 35.174 27.6637 35.134 27.67C35.3026 27.6983 35.4557 27.7855 35.5662 27.9161C35.6766 28.0466 35.7372 28.212 35.7372 28.383C35.7372 28.554 35.6766 28.7194 35.5662 28.85C35.4557 28.9805 35.3026 29.0677 35.134 29.096C35.2326 29.1126 35.3335 29.1085 35.4305 29.0841C35.5274 29.0597 35.6182 29.0154 35.6972 28.9541C35.7761 28.8928 35.8415 28.8158 35.8892 28.728C35.9369 28.6401 35.9659 28.5433 35.9743 28.4437C35.9827 28.3441 35.9703 28.2438 35.938 28.1492C35.9057 28.0546 35.8541 27.9678 35.7865 27.8941C35.7189 27.8205 35.6368 27.7617 35.5453 27.7214C35.4538 27.6811 35.355 27.6602 35.255 27.66Z" fill="#DBDBDB"/>
<path d="M35.979 35.075C36.2789 35.075 36.522 34.8319 36.522 34.532C36.522 34.2321 36.2789 33.989 35.979 33.989C35.6791 33.989 35.436 34.2321 35.436 34.532C35.436 34.8319 35.6791 35.075 35.979 35.075Z" fill="#EDEDED"/>
<path d="M35.979 33.989C35.9488 33.9891 35.9187 33.9918 35.889 33.997C36.016 34.0176 36.1316 34.0828 36.215 34.1808C36.2984 34.2788 36.3442 34.4033 36.3442 34.532C36.3442 34.6607 36.2984 34.7852 36.215 34.8832C36.1316 34.9812 36.016 35.0464 35.889 35.067C35.9632 35.0799 36.0394 35.0772 36.1125 35.059C36.1856 35.0409 36.2542 35.0077 36.3138 34.9617C36.3735 34.9156 36.4228 34.8576 36.4588 34.7914C36.4948 34.7252 36.5167 34.6523 36.5229 34.5772C36.5292 34.5021 36.5198 34.4265 36.4953 34.3552C36.4707 34.284 36.4316 34.2186 36.3805 34.1633C36.3293 34.108 36.2672 34.0639 36.1981 34.0339C36.129 34.0039 36.0544 33.9886 35.979 33.989Z" fill="#DBDBDB"/>
<path d="M37.425 38.33C37.7249 38.33 37.968 38.0869 37.968 37.787C37.968 37.4871 37.7249 37.244 37.425 37.244C37.1251 37.244 36.882 37.4871 36.882 37.787C36.882 38.0869 37.1251 38.33 37.425 38.33Z" fill="#EDEDED"/>
<path d="M37.425 37.244C37.3948 37.2441 37.3647 37.2468 37.335 37.252C37.462 37.2726 37.5776 37.3378 37.661 37.4358C37.7444 37.5338 37.7902 37.6583 37.7902 37.787C37.7902 37.9157 37.7444 38.0402 37.661 38.1382C37.5776 38.2362 37.462 38.3014 37.335 38.322C37.4092 38.3349 37.4854 38.3322 37.5585 38.314C37.6316 38.2959 37.7002 38.2627 37.7598 38.2167C37.8195 38.1706 37.8688 38.1126 37.9048 38.0464C37.9408 37.9802 37.9627 37.9073 37.9689 37.8322C37.9752 37.7571 37.9658 37.6815 37.9413 37.6102C37.9167 37.539 37.8776 37.4736 37.8265 37.4183C37.7753 37.363 37.7132 37.3189 37.6441 37.2889C37.575 37.2589 37.5004 37.2436 37.425 37.244Z" fill="#DBDBDB"/>
<path d="M25.851 35.617C26.0509 35.617 26.213 35.4549 26.213 35.255C26.213 35.0551 26.0509 34.893 25.851 34.893C25.6511 34.893 25.489 35.0551 25.489 35.255C25.489 35.4549 25.6511 35.617 25.851 35.617Z" fill="#EDEDED"/>
<path d="M25.851 34.893C25.8309 34.8931 25.8108 34.8948 25.791 34.898C25.8765 34.9108 25.9546 34.9539 26.011 35.0194C26.0674 35.085 26.0984 35.1685 26.0984 35.255C26.0984 35.3415 26.0674 35.425 26.011 35.4906C25.9546 35.5561 25.8765 35.5992 25.791 35.612C25.8404 35.6203 25.8909 35.6183 25.9395 35.606C25.988 35.5938 26.0335 35.5716 26.0731 35.5409C26.1126 35.5101 26.1453 35.4715 26.1692 35.4275C26.1931 35.3835 26.2075 35.335 26.2117 35.2851C26.2159 35.2352 26.2096 35.185 26.1934 35.1376C26.1772 35.0903 26.1513 35.0468 26.1174 35.0099C26.0835 34.9731 26.0423 34.9437 25.9964 34.9235C25.9506 34.9034 25.9011 34.893 25.851 34.893Z" fill="#DBDBDB"/>
<path d="M26.936 30.553C27.3353 30.553 27.659 30.2293 27.659 29.83C27.659 29.4307 27.3353 29.107 26.936 29.107C26.5367 29.107 26.213 29.4307 26.213 29.83C26.213 30.2293 26.5367 30.553 26.936 30.553Z" fill="#EDEDED"/>
<path d="M26.936 29.107C26.8955 29.1073 26.855 29.1106 26.815 29.117C26.9836 29.1453 27.1367 29.2325 27.2471 29.363C27.3576 29.4936 27.4182 29.659 27.4182 29.83C27.4182 30.001 27.3576 30.1664 27.2471 30.2969C27.1367 30.4275 26.9836 30.5147 26.815 30.543C26.9136 30.5596 27.0145 30.5555 27.1115 30.5311C27.2084 30.5067 27.2992 30.4624 27.3782 30.4011C27.4571 30.3398 27.5225 30.2628 27.5702 30.1749C27.6179 30.0871 27.6469 29.9903 27.6553 29.8907C27.6637 29.7911 27.6513 29.6908 27.619 29.5962C27.5867 29.5016 27.5351 29.4148 27.4675 29.3411C27.3999 29.2675 27.3178 29.2086 27.2263 29.1683C27.1348 29.128 27.036 29.1072 26.936 29.107Z" fill="#DBDBDB"/>
<path d="M38.872 31.096C39.1719 31.096 39.415 30.8529 39.415 30.553C39.415 30.2531 39.1719 30.01 38.872 30.01C38.5721 30.01 38.329 30.2531 38.329 30.553C38.329 30.8529 38.5721 31.096 38.872 31.096Z" fill="#EDEDED"/>
<path d="M38.872 30.011C38.8418 30.0111 38.8117 30.0138 38.782 30.019C38.909 30.0396 39.0246 30.1048 39.108 30.2028C39.1914 30.3008 39.2372 30.4253 39.2372 30.554C39.2372 30.6827 39.1914 30.8072 39.108 30.9052C39.0246 31.0032 38.909 31.0684 38.782 31.089C38.8562 31.1019 38.9324 31.0992 39.0055 31.081C39.0786 31.0629 39.1472 31.0297 39.2068 30.9837C39.2665 30.9376 39.3158 30.8796 39.3518 30.8134C39.3878 30.7472 39.4097 30.6743 39.4159 30.5992C39.4222 30.5241 39.4128 30.4485 39.3883 30.3772C39.3637 30.306 39.3246 30.2406 39.2735 30.1853C39.2223 30.13 39.1602 30.0859 39.0911 30.0559C39.022 30.0259 38.9474 30.0106 38.872 30.011Z" fill="#DBDBDB"/>
<path d="M26.575 28.022C26.7749 28.022 26.937 27.8599 26.937 27.66C26.937 27.4601 26.7749 27.298 26.575 27.298C26.3751 27.298 26.213 27.4601 26.213 27.66C26.213 27.8599 26.3751 28.022 26.575 28.022Z" fill="#EDEDED"/>
<path d="M26.575 27.298C26.5549 27.2981 26.5348 27.2998 26.515 27.303C26.6005 27.3158 26.6786 27.3589 26.735 27.4244C26.7914 27.49 26.8224 27.5735 26.8224 27.66C26.8224 27.7465 26.7914 27.83 26.735 27.8956C26.6786 27.9611 26.6005 28.0042 26.515 28.017C26.5644 28.0253 26.6149 28.0233 26.6635 28.011C26.712 27.9988 26.7575 27.9766 26.7971 27.9459C26.8366 27.9151 26.8693 27.8765 26.8932 27.8325C26.9171 27.7885 26.9315 27.74 26.9357 27.6901C26.9399 27.6402 26.9336 27.59 26.9174 27.5426C26.9012 27.4953 26.8753 27.4518 26.8414 27.4149C26.8075 27.3781 26.7663 27.3487 26.7204 27.3285C26.6746 27.3084 26.6251 27.298 26.575 27.298Z" fill="#DBDBDB"/>
<path d="M39.595 32C39.7949 32 39.957 31.8379 39.957 31.638C39.957 31.4381 39.7949 31.276 39.595 31.276C39.3951 31.276 39.233 31.4381 39.233 31.638C39.233 31.8379 39.3951 32 39.595 32Z" fill="#EDEDED"/>
<path d="M39.595 31.277C39.5749 31.2771 39.5548 31.2788 39.535 31.282C39.6205 31.2948 39.6986 31.3379 39.755 31.4035C39.8114 31.469 39.8424 31.5526 39.8424 31.639C39.8424 31.7255 39.8114 31.8091 39.755 31.8746C39.6986 31.9401 39.6205 31.9832 39.535 31.996C39.5844 32.0043 39.6349 32.0023 39.6835 31.99C39.732 31.9778 39.7775 31.9556 39.8171 31.9249C39.8566 31.8941 39.8893 31.8555 39.9132 31.8115C39.9371 31.7675 39.9515 31.719 39.9557 31.6691C39.9599 31.6192 39.9536 31.569 39.9374 31.5216C39.9212 31.4743 39.8953 31.4308 39.8614 31.3939C39.8275 31.3571 39.7863 31.3277 39.7404 31.3075C39.6946 31.2874 39.6451 31.277 39.595 31.277Z" fill="#DBDBDB"/>
<path d="M35.979 26.213C36.1789 26.213 36.341 26.0509 36.341 25.851C36.341 25.6511 36.1789 25.489 35.979 25.489C35.7791 25.489 35.617 25.6511 35.617 25.851C35.617 26.0509 35.7791 26.213 35.979 26.213Z" fill="#EDEDED"/>
<path d="M35.979 25.49C35.9589 25.4901 35.9388 25.4918 35.919 25.495C36.0045 25.5078 36.0826 25.5509 36.139 25.6164C36.1954 25.6819 36.2264 25.7655 36.2264 25.852C36.2264 25.9384 36.1954 26.022 36.139 26.0875C36.0826 26.1531 36.0045 26.1962 35.919 26.209C35.9684 26.2173 36.0189 26.2152 36.0675 26.203C36.116 26.1907 36.1615 26.1686 36.2011 26.1378C36.2406 26.1071 36.2733 26.0685 36.2972 26.0245C36.3211 25.9805 36.3355 25.932 36.3397 25.8821C36.3439 25.8322 36.3376 25.782 36.3214 25.7346C36.3052 25.6872 36.2793 25.6438 36.2454 25.6069C36.2115 25.5701 36.1703 25.5406 36.1245 25.5205C36.0786 25.5004 36.0291 25.49 35.979 25.49Z" fill="#DBDBDB"/>
<path opacity="0.25" d="M32 23.32C31.507 23.32 31.024 23.363 30.553 23.442C34.658 24.131 37.787 27.699 37.787 32C37.787 36.301 34.658 39.869 30.553 40.558C31.7976 40.7684 33.0732 40.7049 34.2907 40.3717C35.5082 40.0386 36.6385 39.444 37.6026 38.6292C38.5667 37.8145 39.3415 36.7992 39.873 35.6543C40.4045 34.5094 40.6799 33.2623 40.68 32C40.68 29.6979 39.7655 27.4901 38.1377 25.8623C36.5099 24.2345 34.3021 23.32 32 23.32Z" fill="#CECECE"/>
<path d="M12.153 18.763C12.3529 18.763 12.515 18.6009 12.515 18.401C12.515 18.2011 12.3529 18.039 12.153 18.039C11.9531 18.039 11.791 18.2011 11.791 18.401C11.791 18.6009 11.9531 18.763 12.153 18.763Z" fill="#DBDBDB"/>
<path d="M54.108 29.795C54.4079 29.795 54.651 29.5519 54.651 29.252C54.651 28.9521 54.4079 28.709 54.108 28.709C53.8081 28.709 53.565 28.9521 53.565 29.252C53.565 29.5519 53.8081 29.795 54.108 29.795Z" fill="#DBDBDB"/>
<path d="M45.789 20.209C46.1883 20.209 46.512 19.8853 46.512 19.486C46.512 19.0867 46.1883 18.763 45.789 18.763C45.3897 18.763 45.066 19.0867 45.066 19.486C45.066 19.8853 45.3897 20.209 45.789 20.209Z" fill="#DBDBDB"/>
<path d="M16.131 45.889C16.5303 45.889 16.854 45.5653 16.854 45.166C16.854 44.7667 16.5303 44.443 16.131 44.443C15.7317 44.443 15.408 44.7667 15.408 45.166C15.408 45.5653 15.7317 45.889 16.131 45.889Z" fill="#DBDBDB"/>
<path d="M35.662 9.72099C36.0613 9.72099 36.385 9.3973 36.385 8.99799C36.385 8.59869 36.0613 8.27499 35.662 8.27499C35.2627 8.27499 34.939 8.59869 34.939 8.99799C34.939 9.3973 35.2627 9.72099 35.662 9.72099Z" fill="#DBDBDB"/>
<path d="M54.108 44.805C54.3079 44.805 54.47 44.6429 54.47 44.443C54.47 44.2431 54.3079 44.081 54.108 44.081C53.9081 44.081 53.746 44.2431 53.746 44.443C53.746 44.6429 53.9081 44.805 54.108 44.805Z" fill="#DBDBDB"/>
<path d="M9.621 37.209C9.82093 37.209 9.983 37.0469 9.983 36.847C9.983 36.6471 9.82093 36.485 9.621 36.485C9.42107 36.485 9.259 36.6471 9.259 36.847C9.259 37.0469 9.42107 37.209 9.621 37.209Z" fill="#DBDBDB"/>
<path d="M32.769 55.293C32.9689 55.293 33.131 55.1309 33.131 54.931C33.131 54.7311 32.9689 54.569 32.769 54.569C32.5691 54.569 32.407 54.7311 32.407 54.931C32.407 55.1309 32.5691 55.293 32.769 55.293Z" fill="#DBDBDB"/>
</g>
<defs>
<clipPath id="clip0_2_2">
<rect width="64" height="64" fill="white"/>
</clipPath>
</defs>
</svg>
