<svg width="64" height="64" viewBox="0 0 64 64" fill="none" xmlns="http://www.w3.org/2000/svg">
<g clip-path="url(#clip0_2_48)">
<path d="M5.408 14.682L30.202 0.477998C30.7493 0.164425 31.3692 -0.000549316 32 -0.000549316C32.6308 -0.000549316 33.2507 0.164425 33.798 0.477998L58.592 14.682C59.1447 14.9985 59.604 15.4554 59.9234 16.0064C60.2428 16.5575 60.411 17.1831 60.411 17.82V46.179C60.4111 46.8159 60.243 47.4416 59.9235 47.9926C59.6041 48.5437 59.1448 49.0006 58.592 49.317L33.798 63.522C33.2507 63.8356 32.6308 64.0005 32 64.0005C31.3692 64.0005 30.7493 63.8356 30.202 63.522L5.408 49.318C4.8553 49.0015 4.39601 48.5446 4.0766 47.9936C3.75718 47.4425 3.58898 46.8169 3.589 46.18V17.821C3.589 16.524 4.283 15.327 5.408 14.682Z" fill="white"/>
<path d="M8.515 16.439L30.231 4.002C30.7808 3.68749 31.4031 3.52205 32.0365 3.52205C32.6699 3.52205 33.2922 3.68749 33.842 4.002L55.519 16.439C56.648 17.086 57.312 18.287 57.312 19.588V44.413C57.312 45.714 56.65 46.915 55.521 47.562L33.829 59.998C33.2814 60.3125 32.661 60.478 32.0295 60.478C31.398 60.478 30.7776 60.3125 30.23 59.998L8.511 47.561C7.95533 47.2438 7.49317 46.7857 7.17116 46.2328C6.84915 45.6799 6.6787 45.0518 6.677 44.412V19.588C6.6792 18.9478 6.8503 18.3195 7.17302 17.7666C7.49574 17.2137 7.95865 16.7557 8.515 16.439Z" fill="#DE95BA"/>
<path opacity="0.1" d="M31.994 45.508C40.983 45.508 48.27 38.221 48.27 29.232C48.27 20.243 40.983 12.956 31.994 12.956C23.005 12.956 15.718 20.243 15.718 29.232C15.718 38.221 23.005 45.508 31.994 45.508Z" fill="#FFD9E8"/>
<path opacity="0.2" d="M31.994 43.183C39.6989 43.183 45.945 36.9369 45.945 29.232C45.945 21.5271 39.6989 15.281 31.994 15.281C24.2891 15.281 18.043 21.5271 18.043 29.232C18.043 36.9369 24.2891 43.183 31.994 43.183Z" fill="#FFD9E8"/>
<path opacity="0.3" d="M31.994 40.858C38.4149 40.858 43.62 35.6529 43.62 29.232C43.62 22.8111 38.4149 17.606 31.994 17.606C25.5731 17.606 20.368 22.8111 20.368 29.232C20.368 35.6529 25.5731 40.858 31.994 40.858Z" fill="#FFD9E8"/>
<path d="M31.994 37.912C36.7878 37.912 40.674 34.0258 40.674 29.232C40.674 24.4382 36.7878 20.552 31.994 20.552C27.2002 20.552 23.314 24.4382 23.314 29.232C23.314 34.0258 27.2002 37.912 31.994 37.912Z" fill="#FFD9E8"/>
<path d="M31.994 20.551C31.501 20.551 31.018 20.594 30.547 20.673C34.652 21.362 37.781 24.93 37.781 29.231C37.781 33.532 34.652 37.1 30.547 37.789C31.7916 37.9994 33.0672 37.9359 34.2847 37.6027C35.5022 37.2696 36.6325 36.6749 37.5966 35.8602C38.5607 35.0454 39.3355 34.0302 39.867 32.8853C40.3985 31.7404 40.6739 30.4933 40.674 29.231C40.674 28.0911 40.4495 26.9624 40.0133 25.9093C39.5771 24.8562 38.9377 23.8993 38.1317 23.0933C37.3257 22.2873 36.3688 21.6479 35.3157 21.2117C34.2626 20.7755 33.1339 20.551 31.994 20.551Z" fill="#FCD0E1"/>
<path d="M54.763 48.372L54.57 48.483L54.5 48.372H54.763ZM42.348 34.091L42.165 35H42.097L42.774 36H42.37L43.001 37H42.63L43.452 38.208L43.587 37.959L44.477 39H43.949L45.118 40.846L45.858 39.452L46.387 40H45.797L47.102 42.286L47.271 41.925L48.617 44H47.824L49.578 46.99L51.055 44.816L51.59 46H50.798L52.551 48.712L53.78 46.715L54.56 48.094L55.186 47.571C56.315 46.924 56.75 45.713 56.75 44.412V43.57L42.348 34.091ZM53.705 45.478L53.898 45.116L54.146 45.478H53.705ZM50.54 44.393L50.692 44.149L50.822 44.393H50.54ZM47.272 42.127L47.689 41.463L48.132 42.127H47.272ZM45.758 38.968L45.899 38.797L46.026 38.968H45.758ZM43.593 37.883L43.896 37.4L44.154 37.883H43.593Z" fill="#236C6A"/>
<path opacity="0.6" d="M36.892 37.16H26.765C26.5732 37.16 26.3894 37.0838 26.2538 36.9482C26.1182 36.8126 26.042 36.6287 26.042 36.437C26.042 36.2452 26.1182 36.0613 26.2538 35.9258C26.3894 35.7902 26.5732 35.714 26.765 35.714H36.892C37.0837 35.714 37.2676 35.7902 37.4032 35.9258C37.5388 36.0613 37.615 36.2452 37.615 36.437C37.615 36.6287 37.5388 36.8126 37.4032 36.9482C37.2676 37.0838 37.0837 37.16 36.892 37.16ZM31.589 40.053H28.696C28.5042 40.053 28.3203 39.9768 28.1848 39.8412C28.0492 39.7056 27.973 39.5217 27.973 39.33C27.973 39.1382 28.0492 38.9543 28.1848 38.8187C28.3203 38.6832 28.5042 38.607 28.696 38.607H31.589C31.7808 38.607 31.9647 38.6832 32.1002 38.8187C32.2358 38.9543 32.312 39.1382 32.312 39.33C32.312 39.5217 32.2358 39.7056 32.1002 39.8412C31.9647 39.9768 31.7808 40.053 31.589 40.053ZM34.845 40.053H34.122C33.9303 40.053 33.7464 39.9768 33.6108 39.8412C33.4752 39.7056 33.399 39.5217 33.399 39.33C33.399 39.1382 33.4752 38.9543 33.6108 38.8187C33.7464 38.6832 33.9303 38.607 34.122 38.607H34.845C35.0368 38.607 35.2207 38.6832 35.3562 38.8187C35.4918 38.9543 35.568 39.1382 35.568 39.33C35.568 39.5217 35.4918 39.7056 35.3562 39.8412C35.2207 39.9768 35.0368 40.053 34.845 40.053Z" fill="#FFC878"/>
<path d="M31.133 25.623C31.0256 25.566 30.9104 25.5252 30.791 25.502C30.6202 25.465 30.4445 25.4569 30.271 25.478C30.177 25.497 30.076 25.505 29.98 25.542C29.882 25.57 29.788 25.615 29.693 25.656C29.604 25.71 29.514 25.76 29.434 25.824C29.349 25.88 29.284 25.959 29.214 26.024C29.1462 26.1031 29.0847 26.1874 29.03 26.276C29.0349 26.1776 29.0329 26.0791 29.024 25.981C29.005 25.887 28.997 25.785 28.96 25.69C28.932 25.592 28.888 25.498 28.846 25.403C28.792 25.314 28.742 25.224 28.677 25.144C28.62 25.059 28.542 24.994 28.476 24.924C28.3463 24.8066 28.1979 24.7117 28.037 24.643C27.9266 24.5928 27.8093 24.5594 27.689 24.544C27.604 24.534 27.554 24.532 27.554 24.532C27.554 24.532 27.593 24.563 27.664 24.611C27.8168 24.7153 27.9585 24.835 28.087 24.968C28.144 25.018 28.189 25.087 28.247 25.144C28.347 25.274 28.446 25.415 28.524 25.569C28.604 25.722 28.661 25.884 28.71 26.041C28.723 26.121 28.753 26.197 28.761 26.273C28.7935 26.4552 28.8092 26.64 28.808 26.825C28.807 26.909 28.773 26.96 28.773 26.96C28.773 26.96 28.748 26.949 28.748 26.94V26.946C28.748 26.946 28.816 26.906 28.864 26.837C28.91 26.768 29.002 26.674 29.091 26.572C29.134 26.52 29.195 26.467 29.249 26.414C29.299 26.357 29.372 26.312 29.429 26.254C29.559 26.154 29.702 26.055 29.856 25.976C30.009 25.896 30.172 25.838 30.329 25.789C30.409 25.776 30.486 25.746 30.562 25.738C30.637 25.725 30.71 25.713 30.777 25.708C30.913 25.695 31.025 25.687 31.114 25.691C31.199 25.692 31.249 25.69 31.249 25.69C31.249 25.69 31.208 25.664 31.133 25.623ZM27.884 23.29C27.939 23.283 27.972 23.276 27.972 23.276C27.972 23.276 27.947 23.254 27.903 23.221C27.8384 23.1747 27.7659 23.1404 27.689 23.12C27.5796 23.0869 27.4649 23.0751 27.351 23.085C27.29 23.096 27.222 23.098 27.16 23.121C27.096 23.139 27.034 23.167 26.972 23.193C26.914 23.228 26.855 23.263 26.804 23.305C26.748 23.342 26.759 23.396 26.715 23.44C26.709 23.448 26.75 23.456 26.75 23.456V23.446C26.75 23.385 26.686 23.317 26.662 23.255C26.644 23.191 26.591 23.129 26.564 23.067C26.5261 23.0083 26.4843 22.9522 26.439 22.899C26.402 22.844 26.342 22.803 26.298 22.759C26.1479 22.6333 25.9606 22.5605 25.765 22.552C25.709 22.553 25.676 22.557 25.676 22.557C25.676 22.557 25.698 22.582 25.739 22.619C25.784 22.656 25.83 22.708 25.888 22.769C25.947 22.828 26.003 22.904 26.063 22.979C26.117 23.06 26.174 23.143 26.218 23.233C26.266 23.322 26.3 23.416 26.335 23.507C26.362 23.599 26.391 23.689 26.405 23.771C26.421 23.853 26.435 23.927 26.441 23.98C26.448 24.033 26.455 24.067 26.455 24.067L26.472 24.047L26.522 23.996C26.557 23.956 26.612 23.904 26.672 23.846C26.732 23.787 26.807 23.731 26.882 23.671C26.963 23.617 27.045 23.56 27.136 23.516C27.224 23.468 27.319 23.433 27.409 23.398C27.501 23.371 27.591 23.342 27.674 23.327C27.758 23.311 27.826 23.295 27.884 23.29ZM26.425 27.543C26.3092 27.5202 26.1901 27.5195 26.074 27.541C26.012 27.558 25.943 27.567 25.881 27.597C25.816 27.621 25.756 27.657 25.694 27.69C25.638 27.732 25.58 27.773 25.531 27.821C25.477 27.864 25.44 27.924 25.399 27.973C25.389 27.988 25.383 28.003 25.373 28.018C25.371 28.003 25.372 27.99 25.369 27.974C25.352 27.912 25.343 27.843 25.313 27.781C25.289 27.716 25.254 27.656 25.22 27.594C25.178 27.538 25.137 27.48 25.089 27.431C25.045 27.378 24.986 27.341 24.937 27.299C24.8404 27.231 24.7318 27.1818 24.617 27.154C24.5081 27.1238 24.3936 27.12 24.283 27.143C24.283 27.143 24.309 27.166 24.355 27.2C24.405 27.234 24.459 27.282 24.525 27.339C24.592 27.394 24.659 27.467 24.729 27.539C24.793 27.618 24.861 27.698 24.916 27.788C24.975 27.876 25.019 27.971 25.064 28.062C25.1 28.156 25.138 28.247 25.16 28.331C25.184 28.414 25.205 28.49 25.215 28.544C25.227 28.599 24.991 28.633 24.991 28.633C24.991 28.633 24.752 28.626 24.752 28.623V28.626C24.752 28.626 25.022 28.599 25.055 28.555C25.087 28.51 25.261 28.45 25.317 28.384C25.372 28.317 25.507 28.25 25.579 28.18C25.658 28.116 25.769 28.048 25.859 27.993C25.947 27.934 26.057 27.889 26.149 27.845C26.243 27.809 26.341 27.771 26.426 27.749C26.51 27.725 26.583 27.704 26.643 27.694L26.734 27.673C26.734 27.673 26.707 27.653 26.658 27.624C26.5853 27.5843 26.5066 27.5569 26.425 27.543Z" fill="#6B3B75"/>
<path d="M42.615 34L42.163 35H42.095L42.772 36H42.368L43 37H42.629L43.451 38.208L43.586 37.959L44.475 39H43.947L45.116 40.846L45.856 39.452L46.386 40H45.796L47.101 42.286L47.27 41.925L48.616 44H47.823L49.577 46.99L51.054 44.816L51.589 46H50.797L52.552 48.712L53.782 46.715L54.559 48.083L55.173 47.571C56.302 46.924 56.75 45.713 56.75 44.412V43.57L42.617 34H42.615Z" fill="#2683C4"/>
<path d="M42.617 34H22.772C22.772 34 6.725 45.172 6.833 45.515C7.10293 46.3892 7.69388 47.1288 8.487 47.585L30.206 60.01C30.7541 60.3236 31.3748 60.4881 32.0063 60.487C32.6378 60.486 33.2579 60.3194 33.805 60.004L55.228 47.564C56.357 46.917 56.75 45.713 56.75 44.412V43.57L42.617 34Z" fill="#7F4A88"/>
<path d="M22.133 35L22.635 34H23.018L22.824 33.88L22.856 34H22.793L22.724 33.865L22.345 33.051L6.653 43H6.734L6.75 43.361V44.259C6.75 45.755 7.467 46.928 8.67 47.617L9.588 48.153L10.405 46.672L11.711 48.868L13.576 46H12.731L13.302 44.818L14.878 47.153L16.748 44H15.903L17.338 41.807L17.518 42.156L18.91 40H18.281L18.846 39.183L19.636 40.213L20.882 38H20.319L21.268 37.079L21.411 37.352L22.287 36H21.891L22.564 35H22.133Z" fill="#4A266A"/>
<path d="M6.832 45.458C7.142 46.431 7.725 47.15 8.608 47.637L9.55 48.173L10.392 46.672L11.704 48.788L13.575 45.839H12.73L13.301 44.737L14.877 47.128L16.748 44.03H15.903L17.338 41.821L17.518 42.188L18.91 40.051H18.281L18.846 39.207L19.636 40.346L20.883 38.242H20.32L21.269 37.198L21.412 37.447L22.288 36.072H21.892L22.565 34.987H22.134L22.636 34.264H23.019L22.825 33.963L22.856 33.902H22.772C22.772 33.904 7.58 44.551 6.832 45.458Z" fill="#6B3B75"/>
<path d="M22.285 33H22.722L22.039 32H22.441L21.551 30.583L20.662 32H21.064L20.839 32.321L19.822 30.843L18.556 33H19.128L18.569 33.501L17.715 31.945L16.301 34H16.94L16.527 34.705L14.991 32.313L13.135 35.297L11.772 33.051L9.873 36H10.731L10.261 36.971L8.205 33.675L6.75 36.087V37H6.922L6.75 37.772V43H11.921L10.581 41H14.902L14.119 39.804L13.637 39H17.339L16.556 38H17.49L17.247 37H19.322L18.518 36H21.909L21.074 34H23.019L22.285 33ZM9.769 37.984L9.416 37.351H10.106L9.769 37.984ZM13.113 36.741L12.812 36.175H13.464L13.113 36.741ZM13.566 35.873L13.178 35.255H13.95L13.566 35.873ZM15.98 35.591L15.759 35.235H16.227L15.98 35.591ZM18.692 34.51L18.489 34.217H18.848L18.692 34.51ZM20.565 32.802L20.44 32.651H20.652L20.565 32.802ZM41.436 35.012L42.109 36.097H41.713L42.589 37.472L42.732 37.223L43.681 38.267H43.118L44.365 40.371L45.155 39.232L45.72 40.076H45.09L46.482 42.213L46.662 41.846L48.097 44.055H47.252L49.123 47.153L50.699 44.762L51.27 45.864H50.425L52.296 48.813L53.608 46.697L54.437 48.178L55.367 47.642C55.9597 47.3038 56.4527 46.8153 56.7963 46.2257C57.1399 45.6361 57.3219 44.9664 57.324 44.284V43.386L57.267 43.333H57.348L41.654 33.204L41.275 33.84L41.206 33.928H41.143L41.174 33.989L40.98 34.29H41.363L41.865 35.013L41.436 35.012Z" fill="#4A266A"/>
<path d="M57.153 45.455C56.852 46.3781 56.2196 47.1569 55.378 47.641L54.436 48.177L53.607 46.696L52.295 48.812L50.424 45.863H51.269L50.698 44.761L49.122 47.152L47.251 44.054H48.096L46.661 41.845L46.481 42.212L45.089 40.075H45.718L45.153 39.231L44.363 40.37L43.116 38.266H43.679L42.73 37.222L42.587 37.471L41.711 36.096H42.107L41.434 35.011H41.865L41.363 34.288H40.98L41.174 33.987L41.143 33.926H41.227C41.227 33.926 56.405 44.547 57.153 45.455Z" fill="#6B3B75"/>
<path d="M40.981 34.289H42.926L42.091 35.736H45.482L44.678 37.544H46.753L46.51 37.906H47.444L46.661 39.353H50.363L49.881 40.242L49.098 41.523H53.419L52.079 43.331H57.324V37.795L57.078 37.544H57.324V36.11L55.832 33.807L53.733 37.212L53.269 36.459H54.127L52.229 33.308L50.866 35.352L49.01 32.402L47.474 34.861L47.061 34.289H47.7L46.287 32.056L45.433 33.434L44.874 32.843H45.446L44.18 30.8L43.163 32.393L42.938 32.12H43.34L42.45 30.703L41.56 32.12H41.962L41.279 33.205H41.716L40.981 34.289ZM53.894 37.374H54.584L54.231 38.007L53.894 37.374ZM50.536 36.199H51.188L50.887 36.765L50.536 36.199ZM50.05 35.374H50.822L50.434 35.992L50.05 35.374ZM47.773 35.258H48.241L48.02 35.614L47.773 35.258ZM45.152 34.24H45.511L45.308 34.533L45.152 34.24ZM43.348 32.674H43.56L43.435 32.825L43.348 32.674Z" fill="#4A266A"/>
<path opacity="0.4" d="M37.15 36.676H27.023C26.8312 36.676 26.6474 36.5998 26.5118 36.4642C26.3762 36.3287 26.3 36.1448 26.3 35.953C26.3 35.7613 26.3762 35.5774 26.5118 35.4418C26.6474 35.3062 26.8312 35.23 27.023 35.23H37.15C37.3418 35.23 37.5257 35.3062 37.6612 35.4418C37.7968 35.5774 37.873 35.7613 37.873 35.953C37.873 36.1448 37.7968 36.3287 37.6612 36.4642C37.5257 36.5998 37.3418 36.676 37.15 36.676ZM31.848 39.57H28.955C28.8601 39.57 28.766 39.5513 28.6783 39.515C28.5906 39.4786 28.5109 39.4254 28.4438 39.3582C28.3766 39.2911 28.3234 39.2114 28.287 39.1237C28.2507 39.036 28.232 38.942 28.232 38.847C28.232 38.7521 28.2507 38.658 28.287 38.5703C28.3234 38.4826 28.3766 38.4029 28.4438 38.3358C28.5109 38.2686 28.5906 38.2154 28.6783 38.179C28.766 38.1427 28.8601 38.124 28.955 38.124H31.848C32.0398 38.124 32.2236 38.2002 32.3592 38.3358C32.4948 38.4714 32.571 38.6553 32.571 38.847C32.571 39.0388 32.4948 39.2227 32.3592 39.3582C32.2236 39.4938 32.0398 39.57 31.848 39.57ZM35.103 39.57H34.38C34.2851 39.57 34.191 39.5513 34.1033 39.515C34.0156 39.4786 33.9359 39.4254 33.8688 39.3582C33.8016 39.2911 33.7484 39.2114 33.712 39.1237C33.6757 39.036 33.657 38.942 33.657 38.847C33.657 38.7521 33.6757 38.658 33.712 38.5703C33.7484 38.4826 33.8016 38.4029 33.8688 38.3358C33.9359 38.2686 34.0156 38.2154 34.1033 38.179C34.191 38.1427 34.2851 38.124 34.38 38.124H35.103C35.2948 38.124 35.4786 38.2002 35.6142 38.3358C35.7498 38.4714 35.826 38.6553 35.826 38.847C35.826 39.0388 35.7498 39.2227 35.6142 39.3582C35.4786 39.4938 35.2948 39.57 35.103 39.57Z" fill="#FFD9E8"/>
</g>
<defs>
<clipPath id="clip0_2_48">
<rect width="64" height="64" fill="white"/>
</clipPath>
</defs>
</svg>
