<svg width="64" height="64" viewBox="0 0 64 64" fill="none" xmlns="http://www.w3.org/2000/svg">
<g clip-path="url(#clip0_2_67)">
<path d="M5.408 14.682L30.202 0.477998C30.7493 0.164425 31.3692 -0.000549316 32 -0.000549316C32.6308 -0.000549316 33.2507 0.164425 33.798 0.477998L58.592 14.682C59.1447 14.9985 59.604 15.4554 59.9234 16.0064C60.2428 16.5575 60.411 17.1831 60.411 17.82V46.179C60.4111 46.8159 60.243 47.4416 59.9235 47.9926C59.6041 48.5437 59.1448 49.0006 58.592 49.317L33.798 63.522C33.2507 63.8356 32.6308 64.0005 32 64.0005C31.3692 64.0005 30.7493 63.8356 30.202 63.522L5.408 49.318C4.8553 49.0015 4.39601 48.5446 4.0766 47.9936C3.75718 47.4425 3.58898 46.8169 3.589 46.18V17.821C3.589 16.524 4.283 15.327 5.408 14.682Z" fill="white"/>
<path d="M8.565 16.491L30.202 4.095C30.7493 3.78143 31.3692 3.61646 32 3.61646C32.6308 3.61646 33.2506 3.78143 33.798 4.095L55.435 16.49C55.9877 16.8065 56.447 17.2634 56.7664 17.8144C57.0858 18.3655 57.254 18.9911 57.254 19.628V44.37C57.2541 45.0069 57.086 45.6326 56.7665 46.1836C56.4471 46.7347 55.9878 47.1916 55.435 47.508L33.798 59.905C33.2506 60.2186 32.6308 60.3836 32 60.3836C31.3692 60.3836 30.7493 60.2186 30.202 59.905L8.565 47.509C8.0123 47.1925 7.55301 46.7356 7.2336 46.1846C6.91418 45.6335 6.74598 45.0079 6.746 44.371V19.629C6.746 18.332 7.44 17.135 8.565 16.491Z" fill="#3A3F99"/>
<path d="M8.507 16.422L30.217 3.98501C30.7662 3.67048 31.3881 3.505 32.021 3.505C32.6539 3.505 33.2758 3.67048 33.825 3.98501L55.535 16.422C56.0895 16.7397 56.5503 17.1982 56.8708 17.7512C57.1913 18.3041 57.36 18.9319 57.36 19.571V44.396C57.36 45.0351 57.1913 45.6629 56.8708 46.2158C56.5503 46.7688 56.0895 47.2273 55.535 47.545L33.825 59.982C33.2758 60.2965 32.6539 60.462 32.021 60.462C31.3881 60.462 30.7662 60.2965 30.217 59.982L8.507 47.544C7.95246 47.2263 7.49165 46.7678 7.17119 46.2148C6.85072 45.6619 6.68197 45.0341 6.682 44.395V19.571C6.682 18.27 7.379 17.069 8.507 16.422Z" fill="#4AAFCE"/>
<path opacity="0.2" d="M31.351 49.89C40.7719 49.89 48.409 42.2529 48.409 32.832C48.409 23.4111 40.7719 15.774 31.351 15.774C21.9301 15.774 14.293 23.4111 14.293 32.832C14.293 42.2529 21.9301 49.89 31.351 49.89Z" fill="#FFCF68"/>
<path opacity="0.3" d="M31.351 47.453C39.426 47.453 45.972 40.907 45.972 32.832C45.972 24.757 39.426 18.211 31.351 18.211C23.276 18.211 16.73 24.757 16.73 32.832C16.73 40.907 23.276 47.453 31.351 47.453Z" fill="#FFCF68"/>
<path opacity="0.4" d="M31.351 45.016C38.08 45.016 43.535 39.561 43.535 32.832C43.535 26.103 38.08 20.648 31.351 20.648C24.622 20.648 19.167 26.103 19.167 32.832C19.167 39.561 24.622 45.016 31.351 45.016Z" fill="#FFCF68"/>
<path d="M31.351 41.93C36.3757 41.93 40.449 37.8567 40.449 32.832C40.449 27.8073 36.3757 23.734 31.351 23.734C26.3263 23.734 22.253 27.8073 22.253 32.832C22.253 37.8567 26.3263 41.93 31.351 41.93Z" fill="#FFCF68"/>
<path d="M31.351 23.734C30.834 23.734 30.328 23.779 29.835 23.862C34.137 24.584 37.416 28.324 37.416 32.831C37.416 37.338 34.137 41.078 29.835 41.8C31.0773 42.0123 32.3501 41.9641 33.5728 41.6586C34.7955 41.3532 35.9413 40.797 36.9378 40.0254C37.9342 39.2537 38.7595 38.2835 39.3613 37.1762C39.963 36.0689 40.3282 34.8486 40.4336 33.5928C40.5389 32.3369 40.3823 31.0728 39.9734 29.8807C39.5646 28.6886 38.9126 27.5944 38.0587 26.6675C37.2048 25.7406 36.1676 25.0013 35.0129 24.4963C33.8583 23.9913 32.6113 23.7317 31.351 23.734Z" fill="#FFC255"/>
<path d="M50.356 27.476L44.325 33.512L40.909 30.093C40.199 29.383 39.049 29.383 38.339 30.093L29.52 38.913L24.275 33.667C23.9341 33.3261 23.4717 33.1345 22.9895 33.1345C22.5073 33.1345 22.0449 33.3261 21.704 33.667L19.042 36.329L12.806 30.093C12.096 29.383 11.14 29.383 10.43 30.093L7 33.716V44.395C7 45.696 7.537 46.897 8.666 47.544L30.296 59.981C31.413 60.621 32.747 60.621 33.864 59.981L55.374 47.544C56.503 46.898 57 45.696 57 44.395V31.934L52.739 27.475C52.029 26.765 51.066 26.765 50.356 27.476Z" fill="#5E646D"/>
<path d="M9.251 35.452C9.32637 35.378 9.41695 35.3213 9.51645 35.2859C9.61595 35.2505 9.72197 35.2371 9.82714 35.2468C9.93232 35.2566 10.0341 35.2891 10.1254 35.3421C10.2168 35.3951 10.2955 35.4675 10.356 35.554L11.393 37.038C11.4598 37.1335 11.5485 37.2116 11.6518 37.2657C11.7551 37.3197 11.8699 37.3482 11.9865 37.3486C12.103 37.3489 12.218 37.3213 12.3216 37.2679C12.4253 37.2146 12.5146 37.1371 12.582 37.042L13.705 35.458C13.7612 35.379 13.8326 35.312 13.915 35.261C13.9974 35.21 14.0892 35.1759 14.1849 35.1608C14.2807 35.1457 14.3785 35.1499 14.4726 35.1731C14.5667 35.1963 14.6552 35.2381 14.733 35.296L15.644 35.975C15.934 36.191 16.338 36.162 16.593 35.906L17.633 34.866L12.803 30.036C12.6377 29.8674 12.4405 29.7335 12.2229 29.6421C12.0052 29.5507 11.7716 29.5036 11.5355 29.5036C11.2994 29.5036 11.0658 29.5507 10.8481 29.6421C10.6305 29.7335 10.4333 29.8674 10.268 30.036L6.682 33.66V36.637L6.811 36.781C6.87655 36.8542 6.95627 36.9134 7.04534 36.955C7.13441 36.9966 7.23099 37.0196 7.32923 37.0228C7.42747 37.026 7.52533 37.0092 7.6169 36.9735C7.70847 36.9378 7.79185 36.8839 7.862 36.815L9.251 35.452ZM34.731 33.643L36.213 35.299C36.2589 35.3502 36.3146 35.3915 36.3769 35.4205C36.4392 35.4496 36.5067 35.4657 36.5754 35.4679C36.6441 35.4702 36.7125 35.4585 36.7765 35.4336C36.8406 35.4087 36.8989 35.3711 36.948 35.323L37.919 34.37C37.9718 34.3183 38.0352 34.2788 38.1048 34.2541C38.1745 34.2294 38.2486 34.2202 38.3222 34.227C38.3957 34.2339 38.4669 34.2566 38.5308 34.2938C38.5946 34.3309 38.6496 34.3815 38.692 34.442L39.417 35.479C39.619 35.767 40.045 35.769 40.248 35.482L41.033 34.375C41.0722 34.3196 41.1221 34.2727 41.1798 34.2369C41.2374 34.2012 41.3016 34.1773 41.3687 34.1668C41.4357 34.1563 41.5041 34.1593 41.57 34.1756C41.6358 34.192 41.6977 34.2213 41.752 34.262L42.389 34.737C42.4871 34.8099 42.6081 34.8451 42.7299 34.8363C42.8518 34.8275 42.9664 34.7752 43.053 34.689L44.305 33.437L40.908 30.038C40.198 29.328 39.048 29.328 38.338 30.038L34.731 33.643ZM57 31.877L52.739 27.418C52.029 26.708 50.976 26.708 50.266 27.418L44.693 33.04L46.758 35.322C46.8272 35.3982 46.9111 35.4597 47.0045 35.5028C47.098 35.546 47.1992 35.5699 47.3021 35.5732C47.405 35.5764 47.5075 35.559 47.6035 35.5219C47.6995 35.4847 47.7871 35.4287 47.861 35.357L49.309 33.942C49.3876 33.8652 49.482 33.8064 49.5856 33.7696C49.6892 33.7329 49.7995 33.7191 49.909 33.7291C50.0184 33.7392 50.1244 33.7729 50.2195 33.828C50.3147 33.8831 50.3967 33.9581 50.46 34.048L51.539 35.589C51.6085 35.6883 51.7008 35.7694 51.8081 35.8255C51.9155 35.8817 52.0348 35.9112 52.156 35.9116C52.2771 35.912 52.3966 35.8832 52.5043 35.8278C52.6121 35.7723 52.7049 35.6918 52.775 35.593L53.942 33.948C54.0003 33.8658 54.0744 33.7962 54.16 33.7431C54.2456 33.6899 54.3409 33.6545 54.4404 33.6387C54.5399 33.623 54.6416 33.6273 54.7394 33.6514C54.8372 33.6755 54.9292 33.7189 55.01 33.779L55.956 34.485C56.257 34.709 56.497 34.679 56.762 34.414L57 33.998V31.877ZM19.767 37.245C19.915 37.465 20.217 37.517 20.431 37.359L21.432 36.617C21.4863 36.5768 21.5488 36.5488 21.615 36.5352C21.6813 36.5215 21.7497 36.5224 21.8155 36.5378C21.8813 36.5532 21.943 36.5828 21.9963 36.6244C22.0496 36.6661 22.0932 36.7188 22.124 36.779L22.651 37.811C22.6849 37.8776 22.7343 37.9351 22.7951 37.9785C22.8558 38.022 22.9262 38.0501 23.0002 38.0606C23.0741 38.0711 23.1496 38.0637 23.22 38.0388C23.2905 38.014 23.3539 37.9725 23.405 37.918L24.257 37.013C24.2996 36.9679 24.3508 36.9317 24.4075 36.9066C24.4643 36.8816 24.5254 36.8681 24.5875 36.867C24.6495 36.8658 24.7111 36.8771 24.7688 36.9001C24.8264 36.9232 24.8788 36.9574 24.923 37.001L25.441 37.512C25.5208 37.5903 25.626 37.6375 25.7376 37.6448C25.8491 37.6522 25.9597 37.6192 26.049 37.552L27.283 36.619L24.274 33.609C23.9331 33.2681 23.4707 33.0765 22.9885 33.0765C22.5063 33.0765 22.0439 33.2681 21.703 33.609L19.085 36.227L19.767 37.245Z" fill="#F2F2F2"/>
</g>
<defs>
<clipPath id="clip0_2_67">
<rect width="64" height="64" fill="white"/>
</clipPath>
</defs>
</svg>
